<mxfile host="app.diagrams.net" modified="2023-01-19T15:39:38.232Z" agent="5.0 (Windows)" etag="hwgHIa50iVdRzhT55Qev" version="20.8.7" type="github">
  <diagram id="L71-HYiMx5dE4_1I3F0T" name="Sivu-1">
    <mxGraphModel dx="1886" dy="563" grid="1" gridSize="10" guides="1" tooltips="1" connect="1" arrows="1" fold="1" page="1" pageScale="1" pageWidth="827" pageHeight="1169" math="1" shadow="0">
      <root>
        <mxCell id="0" />
        <mxCell id="1" parent="0" />
        <mxCell id="mySPSd7laB0A6SMgmcMS-1" value="" style="group" parent="1" vertex="1" connectable="0">
          <mxGeometry x="-710" y="150" width="950" height="419" as="geometry" />
        </mxCell>
        <mxCell id="izF1CWLwOtwObPyW_wJa-1" value="" style="group" parent="mySPSd7laB0A6SMgmcMS-1" vertex="1" connectable="0">
          <mxGeometry y="99" width="780" height="320" as="geometry" />
        </mxCell>
        <mxCell id="unRAUoUYdDuh-6SN-mz_-5" value="" style="ellipse;whiteSpace=wrap;html=1;aspect=fixed;" parent="izF1CWLwOtwObPyW_wJa-1" vertex="1">
          <mxGeometry x="380" width="80" height="80" as="geometry" />
        </mxCell>
        <mxCell id="unRAUoUYdDuh-6SN-mz_-6" value="" style="ellipse;whiteSpace=wrap;html=1;aspect=fixed;" parent="izF1CWLwOtwObPyW_wJa-1" vertex="1">
          <mxGeometry x="380" y="240" width="80" height="80" as="geometry" />
        </mxCell>
        <mxCell id="U7Zx6VbLF4_jJS3d3RYm-4" value="" style="edgeStyle=orthogonalEdgeStyle;rounded=0;orthogonalLoop=1;jettySize=auto;html=1;" edge="1" parent="izF1CWLwOtwObPyW_wJa-1" source="unRAUoUYdDuh-6SN-mz_-7" target="U7Zx6VbLF4_jJS3d3RYm-2">
          <mxGeometry relative="1" as="geometry" />
        </mxCell>
        <mxCell id="unRAUoUYdDuh-6SN-mz_-7" value="" style="ellipse;whiteSpace=wrap;html=1;aspect=fixed;" parent="izF1CWLwOtwObPyW_wJa-1" vertex="1">
          <mxGeometry x="380" y="120" width="80" height="80" as="geometry" />
        </mxCell>
        <mxCell id="unRAUoUYdDuh-6SN-mz_-10" value="" style="endArrow=classic;html=1;rounded=0;exitX=1;exitY=0.5;exitDx=0;exitDy=0;entryX=0;entryY=0.5;entryDx=0;entryDy=0;fontSize=15;" parent="izF1CWLwOtwObPyW_wJa-1" source="unRAUoUYdDuh-6SN-mz_-35" target="unRAUoUYdDuh-6SN-mz_-7" edge="1">
          <mxGeometry width="50" height="50" relative="1" as="geometry">
            <mxPoint x="300" y="100" as="sourcePoint" />
            <mxPoint x="380" y="160" as="targetPoint" />
          </mxGeometry>
        </mxCell>
        <mxCell id="unRAUoUYdDuh-6SN-mz_-11" value="" style="endArrow=classic;html=1;rounded=0;exitX=1;exitY=0.5;exitDx=0;exitDy=0;entryX=0;entryY=0.5;entryDx=0;entryDy=0;fontSize=15;" parent="izF1CWLwOtwObPyW_wJa-1" source="unRAUoUYdDuh-6SN-mz_-36" target="unRAUoUYdDuh-6SN-mz_-6" edge="1">
          <mxGeometry width="50" height="50" relative="1" as="geometry">
            <mxPoint x="300" y="220" as="sourcePoint" />
            <mxPoint x="380" y="280" as="targetPoint" />
          </mxGeometry>
        </mxCell>
        <mxCell id="unRAUoUYdDuh-6SN-mz_-13" value="" style="endArrow=classic;html=1;rounded=0;exitX=1;exitY=0.5;exitDx=0;exitDy=0;entryX=0;entryY=0.4;entryDx=0;entryDy=0;entryPerimeter=0;fontSize=15;" parent="izF1CWLwOtwObPyW_wJa-1" source="unRAUoUYdDuh-6SN-mz_-35" target="unRAUoUYdDuh-6SN-mz_-6" edge="1">
          <mxGeometry width="50" height="50" relative="1" as="geometry">
            <mxPoint x="300" y="100" as="sourcePoint" />
            <mxPoint x="380" y="280" as="targetPoint" />
          </mxGeometry>
        </mxCell>
        <mxCell id="unRAUoUYdDuh-6SN-mz_-18" value="" style="endArrow=classic;html=1;rounded=0;entryX=0;entryY=0.5;entryDx=0;entryDy=0;fontSize=15;exitX=1;exitY=0.5;exitDx=0;exitDy=0;" parent="izF1CWLwOtwObPyW_wJa-1" source="unRAUoUYdDuh-6SN-mz_-35" target="unRAUoUYdDuh-6SN-mz_-5" edge="1">
          <mxGeometry width="50" height="50" relative="1" as="geometry">
            <mxPoint x="300" y="100" as="sourcePoint" />
            <mxPoint x="380" y="40" as="targetPoint" />
          </mxGeometry>
        </mxCell>
        <mxCell id="unRAUoUYdDuh-6SN-mz_-19" value="" style="endArrow=classic;html=1;rounded=0;exitX=1;exitY=0.5;exitDx=0;exitDy=0;entryX=0;entryY=0.6;entryDx=0;entryDy=0;entryPerimeter=0;fontSize=15;" parent="izF1CWLwOtwObPyW_wJa-1" source="unRAUoUYdDuh-6SN-mz_-36" target="unRAUoUYdDuh-6SN-mz_-5" edge="1">
          <mxGeometry width="50" height="50" relative="1" as="geometry">
            <mxPoint x="300" y="220" as="sourcePoint" />
            <mxPoint x="370" y="60" as="targetPoint" />
          </mxGeometry>
        </mxCell>
        <mxCell id="unRAUoUYdDuh-6SN-mz_-20" value="" style="endArrow=classic;html=1;rounded=0;entryX=0;entryY=0.5;entryDx=0;entryDy=0;fontSize=15;exitX=1;exitY=0.5;exitDx=0;exitDy=0;" parent="izF1CWLwOtwObPyW_wJa-1" source="unRAUoUYdDuh-6SN-mz_-36" target="unRAUoUYdDuh-6SN-mz_-7" edge="1">
          <mxGeometry width="50" height="50" relative="1" as="geometry">
            <mxPoint x="300" y="220" as="sourcePoint" />
            <mxPoint x="390" y="160" as="targetPoint" />
          </mxGeometry>
        </mxCell>
        <mxCell id="unRAUoUYdDuh-6SN-mz_-21" value="" style="endArrow=classic;html=1;rounded=0;entryX=0.025;entryY=0.585;entryDx=0;entryDy=0;exitX=1;exitY=0.5;exitDx=0;exitDy=0;entryPerimeter=0;" parent="izF1CWLwOtwObPyW_wJa-1" source="unRAUoUYdDuh-6SN-mz_-7" target="unRAUoUYdDuh-6SN-mz_-57" edge="1">
          <mxGeometry width="50" height="50" relative="1" as="geometry">
            <mxPoint x="400" y="210" as="sourcePoint" />
            <mxPoint x="540" y="100" as="targetPoint" />
          </mxGeometry>
        </mxCell>
        <mxCell id="unRAUoUYdDuh-6SN-mz_-22" value="" style="endArrow=classic;html=1;rounded=0;exitX=1;exitY=0.5;exitDx=0;exitDy=0;entryX=0;entryY=0.5;entryDx=0;entryDy=0;" parent="izF1CWLwOtwObPyW_wJa-1" source="unRAUoUYdDuh-6SN-mz_-5" target="unRAUoUYdDuh-6SN-mz_-57" edge="1">
          <mxGeometry width="50" height="50" relative="1" as="geometry">
            <mxPoint x="460" y="40" as="sourcePoint" />
            <mxPoint x="540" y="91.03999999999996" as="targetPoint" />
          </mxGeometry>
        </mxCell>
        <mxCell id="unRAUoUYdDuh-6SN-mz_-23" value="" style="endArrow=classic;html=1;rounded=0;exitX=1;exitY=0.5;exitDx=0;exitDy=0;entryX=0.035;entryY=0.71;entryDx=0;entryDy=0;entryPerimeter=0;" parent="izF1CWLwOtwObPyW_wJa-1" source="unRAUoUYdDuh-6SN-mz_-6" target="unRAUoUYdDuh-6SN-mz_-57" edge="1">
          <mxGeometry width="50" height="50" relative="1" as="geometry">
            <mxPoint x="460" y="280" as="sourcePoint" />
            <mxPoint x="541.04" y="108" as="targetPoint" />
          </mxGeometry>
        </mxCell>
        <mxCell id="unRAUoUYdDuh-6SN-mz_-24" value="" style="endArrow=classic;html=1;rounded=0;exitX=1;exitY=0.5;exitDx=0;exitDy=0;entryX=-0.004;entryY=0.306;entryDx=0;entryDy=0;entryPerimeter=0;" parent="izF1CWLwOtwObPyW_wJa-1" source="unRAUoUYdDuh-6SN-mz_-5" target="unRAUoUYdDuh-6SN-mz_-59" edge="1">
          <mxGeometry width="50" height="50" relative="1" as="geometry">
            <mxPoint x="470" as="sourcePoint" />
            <mxPoint x="550" as="targetPoint" />
          </mxGeometry>
        </mxCell>
        <mxCell id="unRAUoUYdDuh-6SN-mz_-25" value="" style="swimlane;startSize=0;" parent="izF1CWLwOtwObPyW_wJa-1" vertex="1">
          <mxGeometry y="130" width="160" height="60" as="geometry" />
        </mxCell>
        <mxCell id="unRAUoUYdDuh-6SN-mz_-27" value="&lt;font style=&quot;font-size: 24px;&quot;&gt;$$ x = [ x_1, x_2 ] $$&lt;/font&gt;" style="text;html=1;strokeColor=none;fillColor=none;align=center;verticalAlign=middle;whiteSpace=wrap;rounded=0;fontSize=18;" parent="unRAUoUYdDuh-6SN-mz_-25" vertex="1">
          <mxGeometry x="-5" y="15" width="170" height="30" as="geometry" />
        </mxCell>
        <mxCell id="unRAUoUYdDuh-6SN-mz_-28" value="" style="endArrow=classic;html=1;rounded=0;fontSize=20;entryX=0;entryY=0.5;entryDx=0;entryDy=0;exitX=1;exitY=0.5;exitDx=0;exitDy=0;" parent="izF1CWLwOtwObPyW_wJa-1" source="unRAUoUYdDuh-6SN-mz_-25" target="unRAUoUYdDuh-6SN-mz_-31" edge="1">
          <mxGeometry width="50" height="50" relative="1" as="geometry">
            <mxPoint x="150" y="160" as="sourcePoint" />
            <mxPoint x="220" y="100" as="targetPoint" />
          </mxGeometry>
        </mxCell>
        <mxCell id="unRAUoUYdDuh-6SN-mz_-29" value="" style="endArrow=classic;html=1;rounded=0;fontSize=20;entryX=0;entryY=0.5;entryDx=0;entryDy=0;exitX=1;exitY=0.5;exitDx=0;exitDy=0;" parent="izF1CWLwOtwObPyW_wJa-1" source="unRAUoUYdDuh-6SN-mz_-25" target="unRAUoUYdDuh-6SN-mz_-36" edge="1">
          <mxGeometry width="50" height="50" relative="1" as="geometry">
            <mxPoint x="162" y="161" as="sourcePoint" />
            <mxPoint x="220" y="220" as="targetPoint" />
          </mxGeometry>
        </mxCell>
        <mxCell id="unRAUoUYdDuh-6SN-mz_-31" value="" style="whiteSpace=wrap;html=1;aspect=fixed;fontSize=18;" parent="izF1CWLwOtwObPyW_wJa-1" vertex="1">
          <mxGeometry x="230" y="70" width="60" height="60" as="geometry" />
        </mxCell>
        <mxCell id="unRAUoUYdDuh-6SN-mz_-32" value="" style="whiteSpace=wrap;html=1;aspect=fixed;fontSize=18;" parent="izF1CWLwOtwObPyW_wJa-1" vertex="1">
          <mxGeometry x="230" y="190" width="60" height="60" as="geometry" />
        </mxCell>
        <mxCell id="unRAUoUYdDuh-6SN-mz_-35" value="&lt;div&gt;$$x^0_1$$&lt;/div&gt;" style="text;html=1;strokeColor=none;fillColor=none;align=center;verticalAlign=middle;whiteSpace=wrap;rounded=0;fontSize=18;" parent="izF1CWLwOtwObPyW_wJa-1" vertex="1">
          <mxGeometry x="230" y="85" width="60" height="30" as="geometry" />
        </mxCell>
        <mxCell id="unRAUoUYdDuh-6SN-mz_-36" value="&lt;div&gt;$$x^0_2$$&lt;/div&gt;" style="text;html=1;strokeColor=none;fillColor=none;align=center;verticalAlign=middle;whiteSpace=wrap;rounded=0;fontSize=18;" parent="izF1CWLwOtwObPyW_wJa-1" vertex="1">
          <mxGeometry x="230" y="205" width="60" height="30" as="geometry" />
        </mxCell>
        <mxCell id="unRAUoUYdDuh-6SN-mz_-37" value="&lt;div style=&quot;font-size: 15px;&quot;&gt;&lt;sub style=&quot;font-size: 15px;&quot;&gt;$$w^1_{11}$$&lt;/sub&gt;&lt;/div&gt;" style="text;html=1;strokeColor=none;fillColor=none;align=center;verticalAlign=middle;whiteSpace=wrap;rounded=0;fontSize=15;rotation=-36;" parent="izF1CWLwOtwObPyW_wJa-1" vertex="1">
          <mxGeometry x="300" y="41" width="60" height="30" as="geometry" />
        </mxCell>
        <mxCell id="unRAUoUYdDuh-6SN-mz_-38" value="&lt;div style=&quot;font-size: 15px;&quot;&gt;&lt;div style=&quot;font-size: 15px;&quot;&gt;&lt;sub style=&quot;font-size: 15px;&quot;&gt;$$w^1_{21}$$&lt;/sub&gt;&lt;/div&gt;&lt;/div&gt;" style="text;html=1;strokeColor=none;fillColor=none;align=center;verticalAlign=middle;whiteSpace=wrap;rounded=0;fontSize=15;rotation=-64;" parent="izF1CWLwOtwObPyW_wJa-1" vertex="1">
          <mxGeometry x="270" y="160" width="60" height="30" as="geometry" />
        </mxCell>
        <mxCell id="unRAUoUYdDuh-6SN-mz_-40" value="&lt;div style=&quot;font-size: 15px;&quot;&gt;&lt;sub style=&quot;font-size: 15px;&quot;&gt;$$w^1_{12}$$&lt;/sub&gt;&lt;/div&gt;" style="text;html=1;strokeColor=none;fillColor=none;align=center;verticalAlign=middle;whiteSpace=wrap;rounded=0;fontSize=15;rotation=37;" parent="izF1CWLwOtwObPyW_wJa-1" vertex="1">
          <mxGeometry x="300" y="90" width="60" height="30" as="geometry" />
        </mxCell>
        <mxCell id="unRAUoUYdDuh-6SN-mz_-41" value="&lt;div style=&quot;font-size: 15px;&quot;&gt;&lt;sub style=&quot;font-size: 15px;&quot;&gt;$$w^1_{13}$$&lt;/sub&gt;&lt;/div&gt;" style="text;html=1;strokeColor=none;fillColor=none;align=center;verticalAlign=middle;whiteSpace=wrap;rounded=0;fontSize=15;rotation=65;" parent="izF1CWLwOtwObPyW_wJa-1" vertex="1">
          <mxGeometry x="340" y="205" width="60" height="30" as="geometry" />
        </mxCell>
        <mxCell id="unRAUoUYdDuh-6SN-mz_-42" value="&lt;div style=&quot;font-size: 15px;&quot;&gt;&lt;sub style=&quot;font-size: 15px;&quot;&gt;$$w^1_{23}$$&lt;/sub&gt;&lt;/div&gt;" style="text;html=1;strokeColor=none;fillColor=none;align=center;verticalAlign=middle;whiteSpace=wrap;rounded=0;fontSize=15;rotation=37;" parent="izF1CWLwOtwObPyW_wJa-1" vertex="1">
          <mxGeometry x="310" y="220" width="60" height="30" as="geometry" />
        </mxCell>
        <mxCell id="unRAUoUYdDuh-6SN-mz_-43" value="&lt;div style=&quot;font-size: 15px;&quot;&gt;&lt;sub style=&quot;font-size: 15px;&quot;&gt;$$w^1_{22}$$&lt;/sub&gt;&lt;/div&gt;" style="text;html=1;strokeColor=none;fillColor=none;align=center;verticalAlign=middle;whiteSpace=wrap;rounded=0;fontSize=15;rotation=-36;" parent="izF1CWLwOtwObPyW_wJa-1" vertex="1">
          <mxGeometry x="320" y="150" width="60" height="30" as="geometry" />
        </mxCell>
        <mxCell id="unRAUoUYdDuh-6SN-mz_-45" value="&lt;div style=&quot;font-size: 15px;&quot;&gt;&lt;sub style=&quot;font-size: 15px;&quot;&gt;$$w^2_{31}$$&lt;/sub&gt;&lt;/div&gt;" style="text;html=1;strokeColor=none;fillColor=none;align=center;verticalAlign=middle;whiteSpace=wrap;rounded=0;fontSize=15;rotation=-66;" parent="izF1CWLwOtwObPyW_wJa-1" vertex="1">
          <mxGeometry x="430" y="220" width="60" height="30" as="geometry" />
        </mxCell>
        <mxCell id="unRAUoUYdDuh-6SN-mz_-46" value="&lt;div style=&quot;font-size: 15px;&quot;&gt;&lt;sub style=&quot;font-size: 15px;&quot;&gt;$$w^2_{11}$$&lt;/sub&gt;&lt;/div&gt;" style="text;html=1;strokeColor=none;fillColor=none;align=center;verticalAlign=middle;whiteSpace=wrap;rounded=0;fontSize=15;rotation=0;" parent="izF1CWLwOtwObPyW_wJa-1" vertex="1">
          <mxGeometry x="470" y="11" width="60" height="30" as="geometry" />
        </mxCell>
        <mxCell id="unRAUoUYdDuh-6SN-mz_-47" value="&lt;div style=&quot;font-size: 15px;&quot;&gt;&lt;sub style=&quot;font-size: 15px;&quot;&gt;$$w^2_{21}$$&lt;/sub&gt;&lt;/div&gt;" style="text;html=1;strokeColor=none;fillColor=none;align=center;verticalAlign=middle;whiteSpace=wrap;rounded=0;fontSize=15;rotation=-50;" parent="izF1CWLwOtwObPyW_wJa-1" vertex="1">
          <mxGeometry x="440" y="110" width="60" height="30" as="geometry" />
        </mxCell>
        <mxCell id="unRAUoUYdDuh-6SN-mz_-48" value="" style="endArrow=none;html=1;rounded=0;fontSize=15;exitX=0;exitY=1;exitDx=0;exitDy=0;entryX=1;entryY=0;entryDx=0;entryDy=0;" parent="izF1CWLwOtwObPyW_wJa-1" source="unRAUoUYdDuh-6SN-mz_-5" target="unRAUoUYdDuh-6SN-mz_-5" edge="1">
          <mxGeometry width="50" height="50" relative="1" as="geometry">
            <mxPoint x="395" y="90" as="sourcePoint" />
            <mxPoint x="445" as="targetPoint" />
          </mxGeometry>
        </mxCell>
        <mxCell id="unRAUoUYdDuh-6SN-mz_-49" value="" style="endArrow=none;html=1;rounded=0;fontSize=15;exitX=0;exitY=1;exitDx=0;exitDy=0;entryX=1;entryY=0;entryDx=0;entryDy=0;" parent="izF1CWLwOtwObPyW_wJa-1" source="unRAUoUYdDuh-6SN-mz_-7" target="unRAUoUYdDuh-6SN-mz_-7" edge="1">
          <mxGeometry width="50" height="50" relative="1" as="geometry">
            <mxPoint x="391.71572875253787" y="186.5642712474621" as="sourcePoint" />
            <mxPoint x="448.28427124746213" y="129.99572875253784" as="targetPoint" />
          </mxGeometry>
        </mxCell>
        <mxCell id="unRAUoUYdDuh-6SN-mz_-50" value="" style="endArrow=none;html=1;rounded=0;fontSize=15;exitX=0;exitY=1;exitDx=0;exitDy=0;entryX=1;entryY=0;entryDx=0;entryDy=0;" parent="izF1CWLwOtwObPyW_wJa-1" source="unRAUoUYdDuh-6SN-mz_-6" target="unRAUoUYdDuh-6SN-mz_-6" edge="1">
          <mxGeometry width="50" height="50" relative="1" as="geometry">
            <mxPoint x="389.99572875253784" y="308.28427124746213" as="sourcePoint" />
            <mxPoint x="446.5642712474621" y="251.71572875253787" as="targetPoint" />
          </mxGeometry>
        </mxCell>
        <mxCell id="unRAUoUYdDuh-6SN-mz_-57" value="" style="ellipse;whiteSpace=wrap;html=1;aspect=fixed;" parent="izF1CWLwOtwObPyW_wJa-1" vertex="1">
          <mxGeometry x="550" width="80" height="80" as="geometry" />
        </mxCell>
        <mxCell id="unRAUoUYdDuh-6SN-mz_-58" value="" style="endArrow=none;html=1;rounded=0;fontSize=15;exitX=0;exitY=1;exitDx=0;exitDy=0;entryX=1;entryY=0;entryDx=0;entryDy=0;" parent="izF1CWLwOtwObPyW_wJa-1" source="unRAUoUYdDuh-6SN-mz_-57" target="unRAUoUYdDuh-6SN-mz_-57" edge="1">
          <mxGeometry width="50" height="50" relative="1" as="geometry">
            <mxPoint x="565" y="150" as="sourcePoint" />
            <mxPoint x="615" y="60" as="targetPoint" />
          </mxGeometry>
        </mxCell>
        <mxCell id="unRAUoUYdDuh-6SN-mz_-59" value="" style="ellipse;whiteSpace=wrap;html=1;aspect=fixed;" parent="izF1CWLwOtwObPyW_wJa-1" vertex="1">
          <mxGeometry x="550" y="240" width="80" height="80" as="geometry" />
        </mxCell>
        <mxCell id="unRAUoUYdDuh-6SN-mz_-60" value="" style="endArrow=none;html=1;rounded=0;fontSize=15;exitX=0;exitY=1;exitDx=0;exitDy=0;entryX=1;entryY=0;entryDx=0;entryDy=0;" parent="izF1CWLwOtwObPyW_wJa-1" source="unRAUoUYdDuh-6SN-mz_-59" target="unRAUoUYdDuh-6SN-mz_-59" edge="1">
          <mxGeometry width="50" height="50" relative="1" as="geometry">
            <mxPoint x="665" y="330" as="sourcePoint" />
            <mxPoint x="715" y="240" as="targetPoint" />
          </mxGeometry>
        </mxCell>
        <mxCell id="unRAUoUYdDuh-6SN-mz_-65" value="" style="endArrow=classic;html=1;rounded=0;fontSize=15;exitX=1;exitY=0.5;exitDx=0;exitDy=0;entryX=-0.004;entryY=0.421;entryDx=0;entryDy=0;entryPerimeter=0;" parent="izF1CWLwOtwObPyW_wJa-1" source="unRAUoUYdDuh-6SN-mz_-7" target="unRAUoUYdDuh-6SN-mz_-59" edge="1">
          <mxGeometry width="50" height="50" relative="1" as="geometry">
            <mxPoint x="350" y="190" as="sourcePoint" />
            <mxPoint x="550" y="271" as="targetPoint" />
          </mxGeometry>
        </mxCell>
        <mxCell id="unRAUoUYdDuh-6SN-mz_-67" value="" style="endArrow=classic;html=1;rounded=0;fontSize=15;exitX=1;exitY=0.5;exitDx=0;exitDy=0;" parent="izF1CWLwOtwObPyW_wJa-1" source="unRAUoUYdDuh-6SN-mz_-6" target="unRAUoUYdDuh-6SN-mz_-59" edge="1">
          <mxGeometry width="50" height="50" relative="1" as="geometry">
            <mxPoint x="350" y="190" as="sourcePoint" />
            <mxPoint x="400" y="140" as="targetPoint" />
          </mxGeometry>
        </mxCell>
        <mxCell id="unRAUoUYdDuh-6SN-mz_-68" value="&lt;div style=&quot;font-size: 15px;&quot;&gt;&lt;sub style=&quot;font-size: 15px;&quot;&gt;$$w^2_{33}$$&lt;/sub&gt;&lt;/div&gt;" style="text;html=1;strokeColor=none;fillColor=none;align=center;verticalAlign=middle;whiteSpace=wrap;rounded=0;fontSize=15;rotation=0;" parent="izF1CWLwOtwObPyW_wJa-1" vertex="1">
          <mxGeometry x="470" y="280" width="60" height="30" as="geometry" />
        </mxCell>
        <mxCell id="unRAUoUYdDuh-6SN-mz_-69" value="&lt;div style=&quot;font-size: 15px;&quot;&gt;&lt;sub style=&quot;font-size: 15px;&quot;&gt;$$w^2_{13}$$&lt;/sub&gt;&lt;/div&gt;" style="text;html=1;strokeColor=none;fillColor=none;align=center;verticalAlign=middle;whiteSpace=wrap;rounded=0;fontSize=15;rotation=67;" parent="izF1CWLwOtwObPyW_wJa-1" vertex="1">
          <mxGeometry x="435.86" y="68.26" width="60" height="29" as="geometry" />
        </mxCell>
        <mxCell id="unRAUoUYdDuh-6SN-mz_-70" value="&lt;div style=&quot;font-size: 15px;&quot;&gt;&lt;sub style=&quot;font-size: 15px;&quot;&gt;$$w^2_{23}$$&lt;/sub&gt;&lt;/div&gt;" style="text;html=1;strokeColor=none;fillColor=none;align=center;verticalAlign=middle;whiteSpace=wrap;rounded=0;fontSize=15;rotation=50;" parent="izF1CWLwOtwObPyW_wJa-1" vertex="1">
          <mxGeometry x="460" y="160" width="60" height="30" as="geometry" />
        </mxCell>
        <mxCell id="U7Zx6VbLF4_jJS3d3RYm-2" value="" style="ellipse;whiteSpace=wrap;html=1;aspect=fixed;" vertex="1" parent="izF1CWLwOtwObPyW_wJa-1">
          <mxGeometry x="550" y="120" width="80" height="80" as="geometry" />
        </mxCell>
        <mxCell id="U7Zx6VbLF4_jJS3d3RYm-3" value="" style="endArrow=none;html=1;rounded=0;fontSize=15;exitX=0;exitY=1;exitDx=0;exitDy=0;entryX=1;entryY=0;entryDx=0;entryDy=0;" edge="1" parent="izF1CWLwOtwObPyW_wJa-1" source="U7Zx6VbLF4_jJS3d3RYm-2" target="U7Zx6VbLF4_jJS3d3RYm-2">
          <mxGeometry width="50" height="50" relative="1" as="geometry">
            <mxPoint x="1285" y="-69" as="sourcePoint" />
            <mxPoint x="1335" y="-159" as="targetPoint" />
          </mxGeometry>
        </mxCell>
        <mxCell id="U7Zx6VbLF4_jJS3d3RYm-5" value="" style="endArrow=classic;html=1;rounded=0;entryX=-0.004;entryY=0.363;entryDx=0;entryDy=0;entryPerimeter=0;exitX=1;exitY=0.5;exitDx=0;exitDy=0;" edge="1" parent="izF1CWLwOtwObPyW_wJa-1" source="unRAUoUYdDuh-6SN-mz_-5" target="U7Zx6VbLF4_jJS3d3RYm-2">
          <mxGeometry width="50" height="50" relative="1" as="geometry">
            <mxPoint x="430" y="201" as="sourcePoint" />
            <mxPoint x="480" y="151" as="targetPoint" />
          </mxGeometry>
        </mxCell>
        <mxCell id="U7Zx6VbLF4_jJS3d3RYm-70" value="&lt;div style=&quot;font-size: 15px;&quot;&gt;&lt;sub style=&quot;font-size: 15px;&quot;&gt;$$w^2_{12}$$&lt;/sub&gt;&lt;/div&gt;" style="text;html=1;strokeColor=none;fillColor=none;align=center;verticalAlign=middle;whiteSpace=wrap;rounded=0;fontSize=15;rotation=45;" vertex="1" parent="izF1CWLwOtwObPyW_wJa-1">
          <mxGeometry x="470" y="50" width="60" height="30" as="geometry" />
        </mxCell>
        <mxCell id="U7Zx6VbLF4_jJS3d3RYm-123" value="&lt;div style=&quot;font-size: 15px;&quot;&gt;&lt;sub style=&quot;font-size: 15px;&quot;&gt;$$w^2_{22}$$&lt;/sub&gt;&lt;/div&gt;" style="text;html=1;strokeColor=none;fillColor=none;align=center;verticalAlign=middle;whiteSpace=wrap;rounded=0;fontSize=15;rotation=0;" vertex="1" parent="izF1CWLwOtwObPyW_wJa-1">
          <mxGeometry x="460" y="130" width="60" height="30" as="geometry" />
        </mxCell>
        <mxCell id="U7Zx6VbLF4_jJS3d3RYm-124" value="&lt;div style=&quot;font-size: 15px;&quot;&gt;&lt;sub style=&quot;font-size: 15px;&quot;&gt;$$w^2_{32}$$&lt;/sub&gt;&lt;/div&gt;" style="text;html=1;strokeColor=none;fillColor=none;align=center;verticalAlign=middle;whiteSpace=wrap;rounded=0;fontSize=15;rotation=-50;" vertex="1" parent="izF1CWLwOtwObPyW_wJa-1">
          <mxGeometry x="470" y="235" width="60" height="30" as="geometry" />
        </mxCell>
        <mxCell id="U7Zx6VbLF4_jJS3d3RYm-71" value="" style="endArrow=classic;html=1;rounded=0;entryX=0.015;entryY=0.652;entryDx=0;entryDy=0;entryPerimeter=0;exitX=1;exitY=0.5;exitDx=0;exitDy=0;" edge="1" parent="izF1CWLwOtwObPyW_wJa-1" source="unRAUoUYdDuh-6SN-mz_-6" target="U7Zx6VbLF4_jJS3d3RYm-2">
          <mxGeometry width="50" height="50" relative="1" as="geometry">
            <mxPoint x="470" y="281" as="sourcePoint" />
            <mxPoint x="450" y="141" as="targetPoint" />
          </mxGeometry>
        </mxCell>
        <mxCell id="U7Zx6VbLF4_jJS3d3RYm-129" value="&lt;div&gt;$$x^1_1$$&lt;/div&gt;" style="text;html=1;strokeColor=none;fillColor=none;align=center;verticalAlign=middle;whiteSpace=wrap;rounded=0;fontSize=18;" vertex="1" parent="izF1CWLwOtwObPyW_wJa-1">
          <mxGeometry x="400" y="40" width="60" height="30" as="geometry" />
        </mxCell>
        <mxCell id="U7Zx6VbLF4_jJS3d3RYm-198" value="&lt;div&gt;$$x^1_2$$&lt;/div&gt;" style="text;html=1;strokeColor=none;fillColor=none;align=center;verticalAlign=middle;whiteSpace=wrap;rounded=0;fontSize=18;" vertex="1" parent="izF1CWLwOtwObPyW_wJa-1">
          <mxGeometry x="400" y="160" width="60" height="30" as="geometry" />
        </mxCell>
        <mxCell id="U7Zx6VbLF4_jJS3d3RYm-199" value="&lt;div&gt;$$x^1_3$$&lt;/div&gt;" style="text;html=1;strokeColor=none;fillColor=none;align=center;verticalAlign=middle;whiteSpace=wrap;rounded=0;fontSize=18;" vertex="1" parent="izF1CWLwOtwObPyW_wJa-1">
          <mxGeometry x="400" y="280" width="60" height="30" as="geometry" />
        </mxCell>
        <mxCell id="U7Zx6VbLF4_jJS3d3RYm-270" value="&lt;div&gt;$$y^1_1$$&lt;/div&gt;" style="text;html=1;strokeColor=none;fillColor=none;align=center;verticalAlign=middle;whiteSpace=wrap;rounded=0;fontSize=18;" vertex="1" parent="izF1CWLwOtwObPyW_wJa-1">
          <mxGeometry x="380" y="11" width="60" height="30" as="geometry" />
        </mxCell>
        <mxCell id="U7Zx6VbLF4_jJS3d3RYm-273" value="&lt;div&gt;$$y^1_2$$&lt;/div&gt;" style="text;html=1;strokeColor=none;fillColor=none;align=center;verticalAlign=middle;whiteSpace=wrap;rounded=0;fontSize=18;" vertex="1" parent="izF1CWLwOtwObPyW_wJa-1">
          <mxGeometry x="380" y="130" width="60" height="30" as="geometry" />
        </mxCell>
        <mxCell id="U7Zx6VbLF4_jJS3d3RYm-274" value="&lt;div&gt;$$y^1_3$$&lt;/div&gt;" style="text;html=1;strokeColor=none;fillColor=none;align=center;verticalAlign=middle;whiteSpace=wrap;rounded=0;fontSize=18;" vertex="1" parent="izF1CWLwOtwObPyW_wJa-1">
          <mxGeometry x="380" y="250" width="60" height="30" as="geometry" />
        </mxCell>
        <mxCell id="U7Zx6VbLF4_jJS3d3RYm-422" value="&lt;div&gt;$$y^2_1$$&lt;/div&gt;" style="text;html=1;strokeColor=none;fillColor=none;align=center;verticalAlign=middle;whiteSpace=wrap;rounded=0;fontSize=18;" vertex="1" parent="izF1CWLwOtwObPyW_wJa-1">
          <mxGeometry x="550" y="11" width="60" height="30" as="geometry" />
        </mxCell>
        <mxCell id="U7Zx6VbLF4_jJS3d3RYm-423" value="&lt;div&gt;$$x^2_1$$&lt;/div&gt;" style="text;html=1;strokeColor=none;fillColor=none;align=center;verticalAlign=middle;whiteSpace=wrap;rounded=0;fontSize=18;" vertex="1" parent="izF1CWLwOtwObPyW_wJa-1">
          <mxGeometry x="570" y="41" width="60" height="30" as="geometry" />
        </mxCell>
        <mxCell id="U7Zx6VbLF4_jJS3d3RYm-424" value="&lt;div&gt;$$y^2_2$$&lt;/div&gt;" style="text;html=1;strokeColor=none;fillColor=none;align=center;verticalAlign=middle;whiteSpace=wrap;rounded=0;fontSize=18;" vertex="1" parent="izF1CWLwOtwObPyW_wJa-1">
          <mxGeometry x="550" y="130" width="60" height="30" as="geometry" />
        </mxCell>
        <mxCell id="U7Zx6VbLF4_jJS3d3RYm-426" value="&lt;div&gt;$$x^2_2$$&lt;/div&gt;" style="text;html=1;strokeColor=none;fillColor=none;align=center;verticalAlign=middle;whiteSpace=wrap;rounded=0;fontSize=18;" vertex="1" parent="izF1CWLwOtwObPyW_wJa-1">
          <mxGeometry x="570" y="160" width="60" height="30" as="geometry" />
        </mxCell>
        <mxCell id="U7Zx6VbLF4_jJS3d3RYm-427" value="&lt;div&gt;$$y^2_3$$&lt;/div&gt;" style="text;html=1;strokeColor=none;fillColor=none;align=center;verticalAlign=middle;whiteSpace=wrap;rounded=0;fontSize=18;" vertex="1" parent="izF1CWLwOtwObPyW_wJa-1">
          <mxGeometry x="550" y="250" width="60" height="30" as="geometry" />
        </mxCell>
        <mxCell id="U7Zx6VbLF4_jJS3d3RYm-428" value="&lt;div&gt;$$x^2_3$$&lt;/div&gt;" style="text;html=1;strokeColor=none;fillColor=none;align=center;verticalAlign=middle;whiteSpace=wrap;rounded=0;fontSize=18;" vertex="1" parent="izF1CWLwOtwObPyW_wJa-1">
          <mxGeometry x="570" y="280" width="60" height="30" as="geometry" />
        </mxCell>
        <mxCell id="izF1CWLwOtwObPyW_wJa-63" value="&lt;div style=&quot;font-size: 24px;&quot;&gt;$$f(x)_1$$&lt;/div&gt;" style="text;html=1;strokeColor=none;fillColor=none;align=center;verticalAlign=middle;whiteSpace=wrap;rounded=0;fontSize=24;" parent="izF1CWLwOtwObPyW_wJa-1" vertex="1">
          <mxGeometry x="720" y="5" width="60" height="70" as="geometry" />
        </mxCell>
        <mxCell id="U7Zx6VbLF4_jJS3d3RYm-434" value="&lt;div style=&quot;font-size: 24px;&quot;&gt;$$f(x)_2$$&lt;/div&gt;" style="text;html=1;strokeColor=none;fillColor=none;align=center;verticalAlign=middle;whiteSpace=wrap;rounded=0;fontSize=24;" vertex="1" parent="izF1CWLwOtwObPyW_wJa-1">
          <mxGeometry x="720" y="125" width="60" height="70" as="geometry" />
        </mxCell>
        <mxCell id="U7Zx6VbLF4_jJS3d3RYm-435" value="&lt;div style=&quot;font-size: 24px;&quot;&gt;$$f(x)_3$$&lt;/div&gt;" style="text;html=1;strokeColor=none;fillColor=none;align=center;verticalAlign=middle;whiteSpace=wrap;rounded=0;fontSize=24;" vertex="1" parent="izF1CWLwOtwObPyW_wJa-1">
          <mxGeometry x="720" y="245" width="60" height="70" as="geometry" />
        </mxCell>
        <mxCell id="ENBTFdsbygloh6ypOBvS-9" value="" style="endArrow=none;dashed=1;html=1;rounded=0;entryX=1;entryY=0.5;entryDx=0;entryDy=0;exitX=0;exitY=0.5;exitDx=0;exitDy=0;fillColor=#dae8fc;strokeColor=#6c8ebf;" parent="mySPSd7laB0A6SMgmcMS-1" source="unRAUoUYdDuh-6SN-mz_-57" target="ENBTFdsbygloh6ypOBvS-8" edge="1">
          <mxGeometry width="50" height="50" relative="1" as="geometry">
            <mxPoint x="400" y="235" as="sourcePoint" />
            <mxPoint x="450" y="185" as="targetPoint" />
          </mxGeometry>
        </mxCell>
        <mxCell id="ENBTFdsbygloh6ypOBvS-11" value="" style="endArrow=none;dashed=1;html=1;rounded=0;entryX=1;entryY=0.5;entryDx=0;entryDy=0;exitX=0;exitY=0.5;exitDx=0;exitDy=0;fillColor=#dae8fc;strokeColor=#6c8ebf;" parent="mySPSd7laB0A6SMgmcMS-1" source="unRAUoUYdDuh-6SN-mz_-59" target="ENBTFdsbygloh6ypOBvS-8" edge="1">
          <mxGeometry width="50" height="50" relative="1" as="geometry">
            <mxPoint x="400" y="235" as="sourcePoint" />
            <mxPoint x="450" y="185" as="targetPoint" />
          </mxGeometry>
        </mxCell>
        <mxCell id="ENBTFdsbygloh6ypOBvS-21" value="" style="group" parent="mySPSd7laB0A6SMgmcMS-1" vertex="1" connectable="0">
          <mxGeometry x="290" y="39" width="60" height="60" as="geometry" />
        </mxCell>
        <mxCell id="ENBTFdsbygloh6ypOBvS-1" value="" style="whiteSpace=wrap;html=1;aspect=fixed;fontSize=18;" parent="ENBTFdsbygloh6ypOBvS-21" vertex="1">
          <mxGeometry width="60" height="60" as="geometry" />
        </mxCell>
        <mxCell id="ENBTFdsbygloh6ypOBvS-2" value="&lt;div&gt;$$b^1$$&lt;/div&gt;" style="text;html=1;strokeColor=none;fillColor=none;align=center;verticalAlign=middle;whiteSpace=wrap;rounded=0;fontSize=18;" parent="ENBTFdsbygloh6ypOBvS-21" vertex="1">
          <mxGeometry y="15" width="60" height="30" as="geometry" />
        </mxCell>
        <mxCell id="ENBTFdsbygloh6ypOBvS-4" value="" style="endArrow=none;dashed=1;html=1;rounded=0;exitX=1;exitY=0.5;exitDx=0;exitDy=0;entryX=0;entryY=0.5;entryDx=0;entryDy=0;fillColor=#dae8fc;strokeColor=#6c8ebf;" parent="mySPSd7laB0A6SMgmcMS-1" source="ENBTFdsbygloh6ypOBvS-2" target="unRAUoUYdDuh-6SN-mz_-5" edge="1">
          <mxGeometry width="50" height="50" relative="1" as="geometry">
            <mxPoint x="310" y="195" as="sourcePoint" />
            <mxPoint x="360" y="145" as="targetPoint" />
          </mxGeometry>
        </mxCell>
        <mxCell id="ENBTFdsbygloh6ypOBvS-5" value="" style="endArrow=none;dashed=1;html=1;rounded=0;exitX=1;exitY=0.5;exitDx=0;exitDy=0;entryX=0;entryY=0.5;entryDx=0;entryDy=0;fillColor=#dae8fc;strokeColor=#6c8ebf;" parent="mySPSd7laB0A6SMgmcMS-1" source="ENBTFdsbygloh6ypOBvS-2" target="unRAUoUYdDuh-6SN-mz_-7" edge="1">
          <mxGeometry width="50" height="50" relative="1" as="geometry">
            <mxPoint x="310" y="215" as="sourcePoint" />
            <mxPoint x="360" y="165" as="targetPoint" />
          </mxGeometry>
        </mxCell>
        <mxCell id="ENBTFdsbygloh6ypOBvS-6" value="" style="endArrow=none;dashed=1;html=1;rounded=0;exitX=1;exitY=0.5;exitDx=0;exitDy=0;entryX=0;entryY=0.5;entryDx=0;entryDy=0;fillColor=#dae8fc;strokeColor=#6c8ebf;" parent="mySPSd7laB0A6SMgmcMS-1" source="ENBTFdsbygloh6ypOBvS-2" target="unRAUoUYdDuh-6SN-mz_-6" edge="1">
          <mxGeometry width="50" height="50" relative="1" as="geometry">
            <mxPoint x="310" y="275" as="sourcePoint" />
            <mxPoint x="360" y="225" as="targetPoint" />
          </mxGeometry>
        </mxCell>
        <mxCell id="ENBTFdsbygloh6ypOBvS-22" value="" style="group" parent="mySPSd7laB0A6SMgmcMS-1" vertex="1" connectable="0">
          <mxGeometry x="460" y="39" width="60" height="60" as="geometry" />
        </mxCell>
        <mxCell id="ENBTFdsbygloh6ypOBvS-7" value="" style="whiteSpace=wrap;html=1;aspect=fixed;fontSize=18;" parent="ENBTFdsbygloh6ypOBvS-22" vertex="1">
          <mxGeometry width="60" height="60" as="geometry" />
        </mxCell>
        <mxCell id="ENBTFdsbygloh6ypOBvS-8" value="&lt;div&gt;$$b^2$$&lt;/div&gt;" style="text;html=1;strokeColor=none;fillColor=none;align=center;verticalAlign=middle;whiteSpace=wrap;rounded=0;fontSize=18;" parent="ENBTFdsbygloh6ypOBvS-22" vertex="1">
          <mxGeometry y="15" width="60" height="30" as="geometry" />
        </mxCell>
        <mxCell id="U7Zx6VbLF4_jJS3d3RYm-128" value="" style="endArrow=none;dashed=1;html=1;rounded=0;entryX=0;entryY=0.5;entryDx=0;entryDy=0;exitX=1;exitY=0.75;exitDx=0;exitDy=0;" edge="1" parent="mySPSd7laB0A6SMgmcMS-1" source="ENBTFdsbygloh6ypOBvS-8" target="U7Zx6VbLF4_jJS3d3RYm-2">
          <mxGeometry width="50" height="50" relative="1" as="geometry">
            <mxPoint x="410" y="230" as="sourcePoint" />
            <mxPoint x="460" y="180" as="targetPoint" />
          </mxGeometry>
        </mxCell>
        <mxCell id="U7Zx6VbLF4_jJS3d3RYm-519" value="&lt;div style=&quot;font-size: 24px;&quot;&gt;$$\mathcal{E}$$&lt;/div&gt;" style="text;html=1;strokeColor=none;fillColor=none;align=center;verticalAlign=middle;whiteSpace=wrap;rounded=0;fontSize=24;" vertex="1" parent="mySPSd7laB0A6SMgmcMS-1">
          <mxGeometry x="880" y="224" width="60" height="70" as="geometry" />
        </mxCell>
        <mxCell id="U7Zx6VbLF4_jJS3d3RYm-430" style="edgeStyle=orthogonalEdgeStyle;rounded=0;orthogonalLoop=1;jettySize=auto;html=1;exitX=1;exitY=0.5;exitDx=0;exitDy=0;" edge="1" parent="1" source="unRAUoUYdDuh-6SN-mz_-57">
          <mxGeometry relative="1" as="geometry">
            <mxPoint y="288.8461538461538" as="targetPoint" />
          </mxGeometry>
        </mxCell>
        <mxCell id="U7Zx6VbLF4_jJS3d3RYm-431" style="edgeStyle=orthogonalEdgeStyle;rounded=0;orthogonalLoop=1;jettySize=auto;html=1;exitX=1;exitY=0.5;exitDx=0;exitDy=0;" edge="1" parent="1" source="U7Zx6VbLF4_jJS3d3RYm-2">
          <mxGeometry relative="1" as="geometry">
            <mxPoint y="408.8461538461538" as="targetPoint" />
          </mxGeometry>
        </mxCell>
        <mxCell id="U7Zx6VbLF4_jJS3d3RYm-433" style="edgeStyle=orthogonalEdgeStyle;rounded=0;orthogonalLoop=1;jettySize=auto;html=1;exitX=1;exitY=0.5;exitDx=0;exitDy=0;" edge="1" parent="1" source="unRAUoUYdDuh-6SN-mz_-59">
          <mxGeometry relative="1" as="geometry">
            <mxPoint y="528.8461538461538" as="targetPoint" />
          </mxGeometry>
        </mxCell>
        <mxCell id="U7Zx6VbLF4_jJS3d3RYm-436" value="" style="endArrow=classic;html=1;rounded=0;" edge="1" parent="1">
          <mxGeometry width="50" height="50" relative="1" as="geometry">
            <mxPoint x="80" y="289" as="sourcePoint" />
            <mxPoint x="170" y="400" as="targetPoint" />
          </mxGeometry>
        </mxCell>
        <mxCell id="U7Zx6VbLF4_jJS3d3RYm-438" value="" style="endArrow=classic;html=1;rounded=0;" edge="1" parent="1">
          <mxGeometry width="50" height="50" relative="1" as="geometry">
            <mxPoint x="80" y="530" as="sourcePoint" />
            <mxPoint x="170" y="420" as="targetPoint" />
          </mxGeometry>
        </mxCell>
        <mxCell id="U7Zx6VbLF4_jJS3d3RYm-439" value="" style="endArrow=classic;html=1;rounded=0;" edge="1" parent="1">
          <mxGeometry width="50" height="50" relative="1" as="geometry">
            <mxPoint x="80" y="410" as="sourcePoint" />
            <mxPoint x="170" y="410" as="targetPoint" />
          </mxGeometry>
        </mxCell>
      </root>
    </mxGraphModel>
  </diagram>
</mxfile>
